<svg width="850" height="199" viewBox="0 0 850 199" fill="none" xmlns="http://www.w3.org/2000/svg">
<path d="M241.125 179.721L217.562 150.489L208.433 139.134L185.613 110.802L169.378 130.969L192.199 159.301L201.327 170.625L203.822 173.704H172.378L153.665 150.457L144.536 139.134L160.25 119.646L176.485 99.4942L247.505 11.3234L256.633 0H160.297L150.774 11.8288L139.325 26.0422L137.445 28.3795L153.648 48.5153L171.763 26.0422L172.378 25.2526H203.822L169.378 68.0351L160.25 79.3269V79.3585L144.031 99.4942L128.317 118.998L112.098 139.134L128.317 159.27L137.445 170.593L149.069 185.059L155.844 193.445L160.297 198.973H256.633L252.574 193.935L241.125 179.721Z" fill="white"/>
<path d="M84.239 173.704H52.7954L55.2908 170.625L64.4186 159.27L87.2394 130.938L96.3673 119.614L112.586 99.4942L121.715 88.155L128.316 79.9744L144.535 59.8387L128.316 39.6871L119.188 28.3795L112.618 20.2147L101.185 6.00124L96.3357 0H0L71.0203 88.1708L87.2394 68.0351L52.7954 25.2526H84.239L102.969 48.5153L112.097 59.8387L96.3673 79.3585L80.1481 99.4942L39.0716 150.489L10.8336 185.549H10.8182L0 198.973H96.3357L119.188 170.625L102.969 150.457L84.239 173.704Z" fill="#EBBE5A"/>
<path d="M809.974 151.054H793.128C792.786 151.054 792.64 150.81 792.689 150.321L809.828 96.7812L792.982 47.2695C792.884 46.8789 793.031 46.6836 793.421 46.6836H810.267C810.755 46.6836 811.048 46.8789 811.146 47.2695L821.18 82.9385L831.361 47.2695C831.458 46.8789 831.776 46.6836 832.313 46.6836H848.939C849.329 46.6836 849.476 46.8789 849.378 47.2695L832.606 96.6348L849.525 150.321C849.72 150.81 849.574 151.054 849.085 151.054H832.313C831.873 151.054 831.556 150.81 831.361 150.321L821.18 111.576L810.853 150.321C810.804 150.81 810.511 151.054 809.974 151.054Z" fill="white"/>
<path d="M753.826 151.054H705.34C704.949 151.054 704.754 150.81 704.754 150.321L704.9 47.2695C704.9 46.8789 705.096 46.6836 705.486 46.6836H753.68C754.07 46.6836 754.266 46.9277 754.266 47.416V64.1885C754.266 64.5791 754.07 64.7744 753.68 64.7744H722.918V88.2119H753.68C754.07 88.2119 754.266 88.4072 754.266 88.7979L754.412 105.79C754.412 106.181 754.217 106.376 753.826 106.376H722.918V132.597H753.826C754.217 132.597 754.412 132.841 754.412 133.329V150.468C754.412 150.858 754.217 151.054 753.826 151.054Z" fill="white"/>
<path d="M634.688 152.52C629.269 152.52 624.386 151.177 620.04 148.491C615.646 145.806 612.105 142.192 609.42 137.651C606.783 133.11 605.465 128.032 605.465 122.417V74.8828C605.465 69.4141 606.808 64.4336 609.493 59.9414C612.13 55.4004 615.67 51.7871 620.113 49.1016C624.557 46.3672 629.415 45 634.688 45C640.206 45 645.187 46.3184 649.63 48.9551C654.073 51.6406 657.589 55.2295 660.177 59.7217C662.813 64.2139 664.132 69.2676 664.132 74.8828V81.7676C664.132 82.1582 663.888 82.3535 663.399 82.3535H646.554C646.163 82.3535 645.968 82.1582 645.968 81.7676V76.0547C645.968 72.2461 644.894 69.0967 642.745 66.6064C640.597 64.1162 637.911 62.8711 634.688 62.8711C631.808 62.8711 629.244 64.0674 626.998 66.46C624.752 68.8525 623.629 71.6602 623.629 74.8828V122.417C623.629 125.688 624.728 128.521 626.925 130.913C629.122 133.257 631.71 134.429 634.688 134.429C637.911 134.429 640.597 133.281 642.745 130.986C644.894 128.643 645.968 125.786 645.968 122.417V115.02H635.494C634.957 115.02 634.688 114.775 634.688 114.287V97.5146C634.688 97.0264 634.957 96.7822 635.494 96.7822H663.546C663.937 96.7822 664.132 97.0264 664.132 97.5146V122.417C664.132 128.032 662.813 133.11 660.177 137.651C657.491 142.192 653.951 145.806 649.557 148.491C645.162 151.177 640.206 152.52 634.688 152.52Z" fill="white"/>
<path d="M537.161 152.52C531.741 152.52 526.858 151.177 522.513 148.491C518.118 145.806 514.578 142.192 511.893 137.651C509.256 133.11 507.938 128.032 507.938 122.417V74.8828C507.938 69.4141 509.28 64.4336 511.966 59.9414C514.603 55.4004 518.143 51.7871 522.586 49.1016C527.029 46.3672 531.888 45 537.161 45C542.679 45 547.659 46.3184 552.103 48.9551C556.546 51.6406 560.062 55.2295 562.649 59.7217C565.286 64.2139 566.604 69.2676 566.604 74.8828V81.7676C566.604 82.1582 566.36 82.3535 565.872 82.3535H549.026C548.636 82.3535 548.44 82.1582 548.44 81.7676V76.0547C548.44 72.2461 547.366 69.0967 545.218 66.6064C543.069 64.1162 540.384 62.8711 537.161 62.8711C534.28 62.8711 531.717 64.0674 529.471 66.46C527.225 68.8525 526.102 71.6602 526.102 74.8828V122.417C526.102 125.688 527.2 128.521 529.397 130.913C531.595 133.257 534.183 134.429 537.161 134.429C540.384 134.429 543.069 133.281 545.218 130.986C547.366 128.643 548.44 125.786 548.44 122.417V115.02H537.967C537.43 115.02 537.161 114.775 537.161 114.287V97.5146C537.161 97.0264 537.43 96.7822 537.967 96.7822H566.019C566.409 96.7822 566.604 97.0264 566.604 97.5146V122.417C566.604 128.032 565.286 133.11 562.649 137.651C559.964 142.192 556.424 145.806 552.029 148.491C547.635 151.177 542.679 152.52 537.161 152.52Z" fill="white"/>
<path d="M465.779 151.054H417.293C416.902 151.054 416.707 150.81 416.707 150.321L416.854 47.2695C416.854 46.8789 417.049 46.6836 417.439 46.6836H465.633C466.023 46.6836 466.219 46.9277 466.219 47.416V64.1885C466.219 64.5791 466.023 64.7744 465.633 64.7744H434.871V88.2119H465.633C466.023 88.2119 466.219 88.4072 466.219 88.7979L466.365 105.79C466.365 106.181 466.17 106.376 465.779 106.376H434.871V132.597H465.779C466.17 132.597 466.365 132.841 466.365 133.329V150.468C466.365 150.858 466.17 151.054 465.779 151.054Z" fill="white"/>
<path d="M338.294 151.054H321.449C321.107 151.054 320.96 150.81 321.009 150.321L338.148 96.7812L321.302 47.2695C321.204 46.8789 321.351 46.6836 321.742 46.6836H338.587C339.076 46.6836 339.369 46.8789 339.466 47.2695L349.5 82.9385L359.681 47.2695C359.779 46.8789 360.096 46.6836 360.633 46.6836H377.259C377.65 46.6836 377.796 46.8789 377.699 47.2695L360.926 96.6348L377.845 150.321C378.04 150.81 377.894 151.054 377.406 151.054H360.633C360.194 151.054 359.876 150.81 359.681 150.321L349.5 111.576L339.173 150.321C339.124 150.81 338.831 151.054 338.294 151.054Z" fill="white"/>
</svg>
